<?xml version="1.0" standalone="no"?>
<!DOCTYPE svg PUBLIC "-//W3C//DTD SVG 20010904//EN"
 "http://www.w3.org/TR/2001/REC-SVG-20010904/DTD/svg10.dtd">
<svg version="1.0" xmlns="http://www.w3.org/2000/svg"
 width="450.000000pt" height="450.000000pt" viewBox="0 0 450.000000 450.000000"
 preserveAspectRatio="xMidYMid meet">
<metadata>
Created by potrace 1.11, written by Peter Selinger 2001-2013
</metadata>
<g transform="translate(0.000000,450.000000) scale(0.100000,-0.100000)"
fill="#000000" stroke="none">
<path d="M1398 4315 c-2 -2 -18 -5 -35 -7 -17 -1 -29 -7 -27 -13 3 -7 -10 -9
-37 -7 -32 3 -40 1 -34 -9 6 -9 4 -11 -8 -6 -9 3 -18 -1 -21 -10 -5 -12 -9
-13 -20 -4 -10 9 -16 8 -26 -4 -7 -8 -23 -15 -35 -15 -13 0 -25 -5 -27 -11 -2
-6 -19 -13 -38 -15 -19 -2 -39 -9 -44 -14 -6 -6 -19 -10 -31 -10 -16 0 -17 -2
-5 -10 12 -8 11 -10 -7 -10 -12 0 -28 -9 -36 -20 -8 -11 -17 -17 -20 -13 -4 3
-7 1 -7 -5 0 -7 -5 -12 -11 -12 -5 0 -7 5 -3 12 4 7 3 8 -5 4 -9 -6 -9 -11 0
-22 10 -12 9 -13 -5 -8 -9 3 -16 1 -16 -6 0 -6 -4 -9 -9 -6 -5 3 -8 -2 -7 -12
1 -12 -6 -17 -23 -16 -22 1 -23 0 -6 -13 18 -12 18 -13 1 -13 -21 0 -48 -25
-38 -35 4 -4 -3 -2 -15 4 -19 10 -22 9 -17 -4 4 -11 0 -15 -16 -15 -18 0 -21
-4 -17 -21 5 -17 3 -18 -11 -7 -14 11 -15 10 -9 -5 4 -10 3 -16 -2 -12 -5 3
-12 1 -16 -5 -4 -6 -11 -7 -17 -4 -7 4 -8 2 -4 -4 4 -6 14 -8 24 -5 9 3 14 3
11 -1 -4 -4 -17 -9 -30 -11 -12 -3 -29 -11 -36 -20 -7 -8 -8 -10 -1 -5 21 17
29 11 11 -8 -10 -11 -26 -18 -36 -16 -14 2 -15 -1 -7 -17 8 -15 8 -19 -2 -17
-7 2 -12 -5 -12 -14 1 -10 -5 -18 -13 -18 -8 0 -11 -4 -8 -10 3 -5 1 -10 -5
-10 -7 0 -10 -7 -6 -15 3 -8 2 -14 -2 -14 -27 4 -42 -3 -42 -22 0 -11 -4 -17
-10 -14 -6 3 -7 -1 -4 -9 3 -9 1 -16 -5 -16 -6 0 -11 -7 -11 -16 0 -8 -4 -12
-10 -9 -6 4 -10 -5 -10 -20 0 -17 -4 -24 -12 -19 -7 5 -9 2 -5 -9 4 -11 1 -15
-13 -12 -13 2 -17 -1 -14 -10 3 -7 -4 -23 -16 -35 -18 -18 -20 -24 -9 -31 13
-8 5 -13 -14 -10 -5 1 -5 -4 -1 -10 4 -7 1 -17 -7 -23 -8 -6 -14 -18 -14 -26
0 -8 -5 -14 -12 -13 -7 2 -10 -4 -7 -12 4 -9 0 -15 -7 -15 -11 0 -11 -3 1 -10
13 -8 13 -10 -2 -10 -11 0 -15 -5 -12 -14 3 -8 -5 -25 -17 -37 -16 -16 -18
-21 -6 -16 9 3 17 2 17 -3 0 -6 -5 -10 -11 -10 -5 0 -8 -4 -4 -9 3 -5 0 -13
-6 -16 -5 -4 -8 -13 -5 -21 3 -8 0 -17 -7 -20 -7 -2 -13 -14 -14 -24 -1 -13 2
-18 9 -14 7 5 8 2 2 -7 -5 -8 -9 -22 -10 -31 -3 -37 -4 -39 -17 -32 -7 5 -6 0
3 -11 9 -11 10 -16 3 -11 -10 5 -13 -18 -13 -103 0 -67 4 -111 10 -111 6 0 10
-9 10 -21 0 -13 4 -18 12 -13 7 5 8 3 3 -7 -11 -16 -14 -110 -4 -104 4 3 10
-2 13 -11 4 -10 2 -13 -7 -8 -6 4 -4 -1 5 -12 10 -12 14 -25 9 -33 -8 -12 8
-61 19 -61 3 0 5 -16 4 -35 -1 -19 2 -33 7 -30 4 3 5 13 2 23 -3 9 -3 14 1 10
4 -3 9 -14 10 -23 1 -9 9 -21 17 -26 8 -5 9 -9 3 -9 -7 0 -15 -7 -18 -16 -5
-14 -4 -15 9 -4 16 13 17 9 18 -57 0 -14 5 -19 14 -16 8 3 11 0 8 -9 -3 -8 6
-27 20 -42 27 -29 32 -42 13 -29 -7 4 -5 -5 5 -21 10 -15 16 -35 13 -43 -5
-13 -4 -14 9 -3 13 10 15 9 15 -10 0 -13 8 -29 18 -37 10 -8 11 -11 2 -7 -13
7 -13 5 -1 -9 7 -9 16 -15 20 -13 3 2 15 -3 26 -11 13 -10 14 -14 4 -10 -9 3
-16 0 -16 -8 0 -8 3 -14 6 -13 22 2 31 -6 39 -34 6 -25 14 -33 30 -32 11 1 21
-1 20 -5 0 -3 0 -17 2 -31 1 -23 2 -23 10 -5 5 11 9 14 9 7 1 -7 5 -10 11 -7
6 4 7 -1 3 -11 -5 -13 -3 -15 7 -9 10 6 12 4 6 -10 -5 -14 -4 -16 7 -6 12 9
14 7 13 -11 -1 -18 4 -23 22 -22 16 1 20 -2 12 -11 -12 -14 6 -35 31 -35 24 0
41 -24 27 -38 -8 -8 -6 -10 8 -8 28 5 37 -4 23 -20 -7 -9 -8 -14 -3 -13 23 4
45 -2 39 -11 -3 -6 1 -7 9 -4 11 4 16 0 16 -12 0 -16 2 -17 10 -4 9 13 10 13
10 0 0 -13 1 -13 10 0 8 13 10 12 10 -3 0 -10 4 -16 9 -12 5 3 12 1 16 -5 4
-6 11 -7 17 -4 7 5 8 2 3 -6 -6 -10 -4 -12 7 -8 8 4 22 -2 32 -13 9 -11 21
-17 26 -14 6 3 10 -2 10 -12 0 -15 2 -16 10 -3 8 12 10 12 10 1 0 -11 3 -11
17 0 11 10 14 10 9 2 -6 -12 5 -18 27 -14 4 0 7 -7 7 -16 1 -16 2 -16 15 1 8
11 15 14 15 8 0 -7 7 -12 16 -12 9 0 12 -5 8 -12 -5 -8 0 -7 11 2 17 13 18 13
13 0 -4 -12 2 -16 26 -18 23 -2 27 0 16 8 -9 6 -10 10 -3 10 6 0 14 -4 17 -9
9 -14 55 -19 60 -7 2 6 5 3 5 -6 1 -10 8 -18 16 -19 24 -2 65 -1 68 1 9 6 77
4 77 -3 0 -4 6 -5 13 0 17 11 41 10 49 -2 5 -7 8 -7 8 0 0 6 19 9 42 7 129 -8
171 -5 162 11 -5 7 0 6 11 -3 11 -9 16 -10 11 -2 -6 11 0 14 20 11 4 0 11 5
15 13 5 7 9 8 9 2 0 -16 101 -10 114 7 6 8 22 13 35 11 15 -2 21 0 17 7 -5 7
3 11 19 11 14 0 24 4 21 8 -3 5 1 9 9 9 8 0 12 -4 9 -9 -3 -4 -1 -8 4 -8 6 0
13 7 16 16 4 9 9 14 13 11 3 -4 14 -2 24 3 12 7 19 6 22 -3 3 -6 6 -4 6 7 1
16 3 16 17 6 8 -8 14 -9 13 -4 -4 23 2 45 11 39 6 -3 13 2 17 11 6 16 7 16 14
-2 7 -17 8 -17 8 -1 1 12 9 17 29 17 21 0 24 2 12 10 -13 9 -13 10 0 11 8 0
28 2 43 3 17 2 31 -3 34 -10 3 -8 11 -14 19 -14 8 0 14 -5 14 -11 0 -5 6 -7
13 -3 8 5 8 2 -2 -9 -11 -14 -11 -17 0 -18 8 -1 18 -1 23 0 5 1 6 -6 2 -15 -5
-14 -4 -15 9 -4 13 11 14 10 9 -4 -3 -9 -1 -16 6 -16 6 0 8 -4 5 -10 -3 -5 3
-10 15 -10 12 0 18 -5 15 -10 -3 -6 1 -10 9 -10 9 0 16 -7 16 -16 0 -8 5 -12
10 -9 6 3 10 1 10 -5 0 -6 4 -8 10 -5 6 4 7 -1 3 -11 -5 -13 -2 -16 8 -12 12
5 14 -2 11 -28 -4 -30 -6 -33 -20 -22 -12 10 -11 6 3 -15 14 -21 14 -26 3 -22
-12 5 -15 -3 -14 -34 1 -22 5 -43 10 -48 5 -4 6 -3 2 4 -3 6 -2 14 3 17 5 4 8
-5 6 -19 -1 -14 3 -25 9 -25 13 0 46 -36 46 -50 0 -6 4 -10 8 -10 5 0 15 -11
22 -25 7 -13 18 -22 23 -18 6 3 7 1 3 -6 -4 -6 2 -23 13 -37 12 -15 21 -23 21
-19 0 5 -8 18 -17 29 -18 21 -18 21 5 2 12 -11 22 -25 22 -31 0 -7 8 -19 18
-26 15 -12 16 -12 7 1 -6 10 -4 9 6 -2 9 -9 20 -14 24 -10 3 4 5 0 3 -8 -2 -8
2 -14 9 -13 7 2 10 -4 7 -12 -4 -9 0 -15 10 -15 9 0 16 -8 16 -17 0 -15 2 -16
10 -3 8 12 10 11 10 -8 0 -15 11 -29 35 -43 38 -23 45 -31 18 -23 -17 5 -17 5
0 -6 9 -6 21 -9 26 -5 12 7 21 -7 23 -38 2 -17 7 -23 16 -19 11 4 13 0 7 -19
-7 -22 -7 -23 10 -9 11 9 16 10 11 3 -4 -8 -2 -13 6 -13 9 0 9 -3 -2 -10 -13
-8 -12 -10 3 -10 9 0 17 -4 17 -10 0 -5 7 -10 15 -10 9 0 15 -9 15 -22 0 -19
2 -20 10 -8 8 12 10 11 10 -7 0 -17 4 -21 17 -16 11 4 14 3 9 -5 -4 -7 -1 -15
8 -18 9 -3 13 -10 10 -15 -3 -5 4 -9 15 -9 24 0 36 -16 19 -23 -13 -5 17 -11
36 -8 5 1 4 -4 -2 -12 -10 -11 -9 -17 5 -28 17 -13 17 -13 3 6 -14 19 -14 19
3 6 10 -8 16 -20 13 -27 -3 -8 -2 -13 2 -13 24 4 42 -3 42 -17 0 -8 5 -12 10
-9 6 3 10 -4 10 -17 0 -18 2 -20 10 -8 8 12 10 10 10 -10 0 -14 3 -20 8 -14 5
9 11 8 20 -2 10 -11 10 -14 0 -15 -7 0 -3 -4 10 -9 12 -5 22 -17 22 -27 0 -15
2 -16 10 -3 8 12 10 11 10 -6 0 -25 23 -47 36 -36 4 4 2 -2 -6 -12 -14 -18
-13 -19 2 -13 10 3 20 1 24 -5 4 -7 3 -8 -4 -4 -7 4 -12 2 -12 -3 0 -6 7 -11
16 -11 8 0 12 -4 9 -10 -3 -5 -2 -10 3 -10 5 0 15 -11 22 -25 8 -14 16 -21 20
-16 3 6 11 6 19 2 9 -6 10 -11 2 -15 -6 -4 -11 -13 -11 -19 0 -7 4 -6 10 3 6
10 10 11 10 3 0 -7 10 -13 23 -13 16 0 18 -3 9 -9 -11 -7 -10 -9 3 -15 10 -3
13 -11 9 -18 -5 -9 -2 -8 9 1 10 8 20 11 24 7 3 -3 1 -6 -5 -6 -7 0 -12 -4
-12 -10 0 -5 7 -10 16 -10 8 0 12 -4 9 -10 -3 -5 1 -10 10 -10 9 0 14 -4 10
-9 -3 -5 4 -12 15 -16 11 -3 20 -11 20 -16 0 -6 6 -7 13 -3 9 5 9 4 -1 -7 -10
-11 -8 -16 10 -26 13 -7 17 -12 11 -13 -20 0 -15 -30 5 -30 14 0 15 2 2 10 -9
6 -10 10 -3 10 15 0 35 -35 25 -44 -3 -4 2 -4 13 0 15 6 17 4 12 -9 -6 -15 7
-22 35 -18 4 0 5 -8 3 -19 -2 -12 0 -18 6 -15 5 4 9 1 9 -4 0 -6 7 -11 16 -11
8 0 12 5 9 10 -3 6 -1 10 4 10 6 0 11 -5 11 -11 0 -13 52 -8 62 6 5 6 8 5 8
-4 0 -11 3 -11 17 0 11 10 14 10 9 1 -4 -6 -3 -12 1 -12 5 0 13 10 18 22 6 13
17 23 25 23 8 0 19 6 23 13 4 6 13 12 20 12 7 0 6 -4 -3 -10 -8 -5 -10 -10 -4
-10 18 0 24 13 12 27 -9 11 -7 12 7 7 12 -5 16 -4 12 3 -4 6 3 13 14 16 12 3
18 10 14 17 -3 6 -2 9 3 8 13 -4 53 42 47 53 -3 4 -1 10 4 13 5 4 13 1 17 -5
5 -8 3 -9 -6 -4 -9 5 -11 4 -6 -4 4 -6 12 -9 17 -5 5 3 7 10 4 15 -4 5 -1 9 5
9 6 0 9 4 6 9 -3 5 4 11 15 14 12 3 18 10 14 16 -4 7 1 8 12 4 16 -6 17 -5 3
12 -8 10 -10 16 -3 12 18 -11 42 3 36 21 -5 12 -2 14 11 9 13 -5 17 -3 13 7
-3 8 2 16 14 19 16 4 18 9 11 24 -6 10 -9 30 -7 46 2 15 -1 27 -6 27 -5 0 -9
7 -9 16 0 9 -5 12 -12 8 -8 -5 -8 -2 1 10 12 14 12 17 0 14 -8 -2 -15 7 -17
21 -3 19 -6 21 -13 10 -7 -11 -9 -11 -9 4 0 9 -7 17 -17 17 -9 0 -13 3 -10 7
9 9 -22 43 -40 43 -7 0 -13 7 -13 16 0 8 -4 12 -10 9 -5 -3 -10 1 -10 9 0 9
-7 16 -16 16 -8 0 -12 4 -9 10 3 5 -1 10 -10 10 -9 0 -13 5 -10 11 4 6 -2 13
-14 16 -19 5 -26 15 -22 36 1 5 -3 6 -9 2 -5 -3 -10 -1 -10 5 0 6 -4 8 -10 5
-5 -3 -10 -1 -10 4 0 6 5 11 12 11 6 0 8 3 5 6 -4 4 -14 1 -24 -7 -9 -8 -14
-9 -10 -2 4 7 -2 18 -15 27 -13 9 -23 24 -23 34 0 9 -6 16 -12 15 -7 -2 -13 4
-13 13 0 8 5 12 10 9 6 -3 10 -1 10 4 0 6 -15 11 -32 12 -28 0 -30 2 -13 9 18
8 18 9 2 9 -10 1 -20 8 -23 16 -4 8 -16 15 -28 16 -19 1 -18 2 4 8 24 7 24 8
-9 15 -25 6 -30 11 -20 17 10 6 7 9 -11 9 -20 0 -22 2 -10 10 13 9 13 10 0 11
-8 1 -22 0 -30 -1 -12 -1 -13 1 -2 11 17 18 15 34 -2 20 -11 -9 -15 -8 -20 4
-4 11 -2 14 6 9 7 -5 8 -3 3 5 -4 7 -16 10 -27 8 -16 -5 -17 -3 -6 11 11 13
11 14 0 8 -9 -5 -15 -1 -19 12 -3 14 -10 19 -21 14 -15 -5 -16 -4 -2 13 8 10
10 16 4 12 -16 -9 -56 23 -50 40 4 9 2 11 -6 7 -8 -5 -9 -2 -5 10 6 14 3 17
-9 12 -15 -6 -15 -4 -3 11 8 9 9 14 4 11 -6 -4 -17 -2 -25 3 -13 8 -13 10 0
19 8 5 10 10 5 10 -6 0 -17 -6 -24 -12 -8 -8 -11 -8 -8 -2 4 6 -4 20 -18 30
-13 10 -22 21 -19 26 3 4 0 8 -6 8 -15 0 -31 18 -49 52 -8 15 -18 25 -23 22
-4 -3 -11 2 -14 10 -3 9 -12 16 -20 16 -13 0 -18 12 -15 33 0 4 -6 7 -15 7 -8
0 -12 4 -9 10 3 6 -1 7 -10 4 -11 -5 -14 -2 -8 12 4 11 3 15 -5 10 -6 -3 -13
-2 -17 4 -4 6 -11 7 -17 4 -7 -4 -8 -2 -4 4 4 7 1 12 -6 12 -9 0 -9 3 2 10 12
8 11 10 -7 10 -13 0 -23 5 -23 11 0 6 -7 17 -15 26 -8 8 -13 20 -9 26 3 7 -2
3 -10 -7 -16 -19 -16 -19 -17 5 -1 13 -1 33 0 44 0 11 -2 14 -5 8 -3 -7 -10
-13 -15 -13 -6 0 -7 5 -3 12 5 8 2 9 -10 5 -14 -5 -15 -3 -6 13 9 16 7 18 -10
15 -11 -2 -22 0 -25 6 -4 5 2 9 12 10 10 0 5 5 -12 10 -16 5 -36 7 -44 4 -11
-5 -12 -3 -1 10 11 13 8 15 -16 16 -25 0 -26 1 -9 9 19 8 19 9 -1 9 -13 1 -24
9 -27 21 -3 13 -11 18 -21 14 -12 -5 -14 0 -10 23 3 22 2 25 -7 13 -8 -12 -12
-12 -16 -2 -4 10 -8 10 -21 0 -13 -11 -14 -11 -7 1 6 11 4 13 -9 8 -10 -4 -21
-7 -24 -7 -4 0 0 -5 8 -11 12 -9 11 -10 -7 -6 -14 3 -23 0 -23 -6 0 -8 -4 -7
-9 2 -5 8 -14 10 -22 5 -10 -6 -10 -3 1 11 8 10 10 16 4 12 -6 -4 -22 2 -34
13 -13 11 -27 20 -31 20 -4 0 -6 9 -4 19 3 14 -1 18 -11 14 -9 -3 -14 1 -14
11 0 9 -8 20 -17 23 -26 9 -54 44 -46 56 4 6 0 8 -10 4 -13 -5 -17 0 -18 21
-1 15 -1 30 0 34 0 4 -5 5 -13 2 -7 -3 -16 2 -20 11 -3 9 -2 14 3 11 12 -8 40
53 36 75 -3 12 1 16 11 12 10 -3 14 2 14 18 0 19 2 21 10 9 8 -12 10 -9 10 12
0 15 7 31 16 36 9 5 17 13 17 18 1 5 5 8 10 6 4 -1 6 1 6 5 -1 5 -1 23 0 42 1
33 2 34 15 15 10 -13 14 -14 13 -4 -2 8 -6 20 -10 26 -8 14 16 37 29 26 4 -4
2 2 -6 12 -10 13 -10 17 -2 12 8 -5 12 -1 12 13 0 11 7 24 16 29 14 8 14 13 4
32 -10 18 -9 21 1 15 8 -6 11 -4 7 7 -4 8 -2 21 4 29 8 11 9 10 4 -3 -3 -10
-1 -18 5 -18 6 0 9 14 6 34 -3 19 0 40 7 47 8 9 7 10 -4 5 -8 -4 -6 0 4 8 11
9 16 16 12 16 -5 0 -4 6 0 13 11 15 11 67 1 85 -5 6 -4 12 1 12 10 0 9 30 -2
48 -4 7 -2 12 5 12 8 0 8 4 -1 15 -10 12 -10 15 0 15 10 0 10 3 0 15 -10 12
-10 15 1 15 12 0 12 2 0 9 -9 6 -10 11 -2 15 7 5 8 13 2 25 -6 10 -6 23 -1 31
5 9 5 19 -2 27 -8 10 -7 13 3 13 12 0 12 2 0 9 -9 6 -10 11 -2 15 7 5 8 13 2
24 -6 11 -6 24 0 35 8 13 6 17 -6 17 -8 0 -15 8 -15 18 0 14 2 15 10 2 5 -8
10 -10 10 -4 0 5 -4 14 -10 20 -5 5 -11 29 -12 52 -1 27 -7 46 -17 52 -9 5
-12 10 -7 10 5 0 3 7 -4 15 -7 9 -8 15 -2 15 5 0 8 9 5 20 -3 11 -13 20 -22
20 -14 0 -14 2 -1 10 13 9 7 14 -12 11 -5 0 -8 9 -8 22 0 12 -4 29 -10 37 -6
9 -5 17 3 23 8 5 5 7 -8 5 -14 -2 -20 2 -19 15 1 9 -2 17 -7 17 -5 0 -9 7 -9
16 0 8 -4 13 -9 9 -5 -3 -13 0 -17 6 -4 7 -3 9 3 6 6 -4 13 0 16 8 4 9 1 12
-9 8 -8 -3 -14 -2 -13 3 4 25 -3 44 -15 44 -10 0 -13 7 -11 21 3 16 1 18 -8
10 -10 -7 -13 -3 -15 17 -1 15 -13 37 -27 50 -14 13 -23 27 -20 32 7 12 -30
32 -41 22 -5 -4 -2 2 6 13 8 11 11 17 6 13 -11 -10 -35 14 -29 29 3 7 -1 13
-8 13 -7 0 -9 3 -6 7 4 3 -3 11 -15 17 -13 6 -28 21 -34 34 -6 12 -13 20 -16
17 -3 -3 -15 8 -28 25 -12 16 -27 27 -31 24 -5 -3 -9 2 -9 11 0 9 -4 14 -9 11
-5 -3 -12 1 -15 10 -4 9 -13 14 -21 10 -17 -6 -37 31 -27 49 3 6 -3 3 -13 -5
-15 -12 -17 -12 -10 -1 6 11 4 13 -8 8 -9 -3 -23 0 -31 8 -7 8 -17 11 -22 7
-5 -4 -3 1 4 10 11 14 10 16 -6 11 -13 -3 -25 3 -35 17 -11 15 -16 18 -20 8
-4 -9 -6 -8 -6 4 -1 11 -8 16 -21 13 -11 -2 -23 1 -26 7 -5 7 -2 8 6 3 9 -5
11 -4 6 4 -6 9 -11 9 -24 -1 -12 -10 -14 -10 -8 0 5 8 -1 12 -22 12 -19 0 -32
6 -36 17 -6 15 -8 15 -16 3 -7 -11 -10 -12 -10 -2 0 7 -4 10 -10 7 -6 -4 -7 1
-3 12 6 16 5 17 -12 3 -14 -11 -17 -11 -11 -1 7 10 3 12 -13 6 -13 -4 -21 -2
-21 5 0 6 -4 9 -9 6 -5 -4 -11 -1 -13 5 -2 7 -19 13 -38 14 -19 2 -36 8 -38
14 -5 15 -55 14 -71 -1 -11 -10 -13 -10 -7 0 5 8 0 12 -14 12 -14 0 -19 4 -14
13 5 8 2 7 -9 -2 -10 -8 -20 -11 -24 -7 -3 3 0 6 8 7 8 0 6 4 -6 9 -14 5 -24
3 -32 -8 -11 -13 -13 -13 -13 -1 0 11 -16 14 -77 12 -43 -2 -83 -5 -90 -7 -6
-3 -14 0 -17 7 -3 9 -8 8 -15 -3 -10 -13 -11 -13 -11 0 -1 11 -4 10 -15 -4
-15 -20 -15 -20 -16 0 0 10 -3 13 -6 7 -3 -9 -10 -10 -22 -3 -10 5 -20 7 -23
5z m-408 -170 c-7 -9 -15 -13 -19 -10 -3 3 1 10 9 15 21 14 24 12 10 -5z m600
-125 c54 4 110 -2 104 -11 -2 -4 0 -10 6 -14 5 -3 10 -1 10 4 0 6 5 11 11 11
5 0 7 -6 3 -12 -5 -8 0 -7 11 2 11 9 16 10 11 3 -5 -10 3 -13 29 -13 22 0 34
-4 30 -10 -4 -6 5 -10 19 -10 14 0 26 -6 26 -12 0 -10 2 -10 9 0 6 11 10 10
16 -5 7 -17 8 -17 15 2 8 18 9 18 9 2 1 -10 5 -16 10 -13 13 8 42 -4 35 -15
-3 -5 2 -9 11 -9 9 0 26 -7 39 -16 16 -10 26 -12 31 -5 3 6 12 11 18 11 7 0 6
-4 -3 -10 -11 -7 -6 -10 20 -11 29 0 31 -2 15 -9 -18 -8 -18 -9 -2 -9 12 -1
16 -5 11 -13 -5 -8 0 -7 11 2 11 9 16 10 11 3 -4 -8 -1 -13 8 -13 8 0 20 -9
26 -20 6 -11 15 -18 20 -15 4 3 14 -1 22 -8 7 -8 19 -12 27 -9 8 3 11 0 7 -7
-4 -6 0 -14 8 -17 9 -3 14 -9 12 -13 -2 -3 3 -12 11 -20 13 -12 14 -11 8 10
-5 18 -4 21 4 9 6 -8 11 -23 11 -32 0 -10 14 -24 33 -31 17 -8 41 -25 52 -37
11 -13 14 -20 8 -16 -7 4 -13 2 -13 -3 0 -6 5 -11 10 -11 6 0 10 -9 10 -21 0
-11 5 -17 10 -14 6 3 10 -1 10 -10 0 -9 5 -13 10 -10 6 3 10 -1 10 -10 0 -10
5 -13 12 -9 8 5 9 2 5 -10 -4 -9 0 -27 8 -40 8 -12 12 -26 8 -29 -3 -4 1 -7
10 -7 11 0 17 -8 17 -25 0 -19 5 -25 23 -26 21 -1 21 -1 -3 -8 l-25 -7 26 -7
c19 -5 26 -13 25 -29 0 -13 4 -22 10 -21 6 1 11 -4 11 -12 0 -7 -7 -11 -16 -8
-12 3 -12 2 2 -7 9 -6 17 -18 17 -26 0 -8 6 -17 14 -20 8 -3 17 -12 20 -20 3
-8 1 -12 -4 -9 -5 3 -7 -11 -5 -36 3 -24 10 -46 16 -49 16 -10 12 -339 -4
-359 -7 -8 -7 -12 -1 -8 6 3 11 0 11 -7 0 -8 -6 -12 -14 -9 -8 3 -11 0 -8 -9
3 -8 -1 -27 -9 -42 -8 -16 -13 -37 -11 -47 3 -13 -2 -19 -13 -19 -10 0 -13 -3
-7 -8 15 -11 17 -32 2 -26 -8 3 -14 -2 -14 -10 0 -8 5 -13 10 -9 5 3 4 -4 -2
-14 -6 -11 -8 -23 -5 -26 3 -3 0 -8 -7 -13 -7 -4 -10 -3 -5 4 3 6 2 13 -3 16
-5 4 -8 -5 -6 -19 1 -14 -2 -25 -7 -25 -5 0 -6 -4 -3 -10 3 -6 -1 -7 -10 -4
-11 5 -14 2 -9 -10 4 -11 1 -16 -10 -16 -11 0 -16 -9 -16 -29 0 -16 -7 -34
-15 -41 -9 -7 -13 -20 -10 -28 5 -13 3 -13 -12 -1 -11 9 -14 10 -9 2 4 -7 3
-13 -3 -13 -6 0 -8 -7 -5 -15 5 -11 2 -13 -12 -8 -13 5 -15 3 -9 -8 7 -11 5
-11 -10 1 -11 9 -16 10 -11 3 4 -8 2 -13 -6 -13 -9 0 -9 -3 2 -10 11 -7 11
-10 2 -10 -7 0 -10 -4 -7 -10 3 -5 0 -7 -8 -4 -9 3 -16 -3 -20 -15 -3 -12 -11
-21 -19 -21 -10 0 -9 3 2 11 10 7 11 9 2 7 -8 -2 -12 -6 -11 -8 5 -11 -23 -50
-32 -45 -5 4 -9 -1 -9 -9 0 -9 -3 -15 -7 -15 -21 3 -26 -2 -13 -12 12 -9 10
-10 -8 -6 -18 4 -22 2 -18 -9 3 -7 1 -13 -4 -11 -5 1 -16 -7 -24 -18 -15 -19
-16 -19 -9 -1 4 13 3 17 -5 12 -7 -4 -12 -14 -12 -21 0 -9 -6 -12 -15 -9 -12
5 -14 2 -8 -12 6 -16 4 -17 -9 -6 -13 10 -17 10 -22 -4 -4 -9 -12 -14 -22 -10
-8 3 -12 2 -9 -4 3 -6 1 -10 -5 -10 -6 0 -8 -6 -4 -12 6 -10 4 -10 -7 0 -16
14 -33 16 -24 2 5 -9 -9 -14 -18 -7 -2 1 -11 -4 -20 -11 -11 -10 -17 -10 -23
-1 -5 8 -13 4 -26 -12 -11 -13 -16 -18 -12 -10 5 9 3 12 -4 7 -7 -4 -12 -13
-12 -20 0 -8 -16 -12 -50 -11 -30 1 -55 -4 -61 -11 -6 -7 -18 -10 -26 -7 -11
5 -14 3 -8 -6 6 -11 3 -11 -16 -1 -15 9 -24 9 -26 3 -3 -7 -17 -8 -38 -3 -19
4 -35 4 -35 -1 0 -5 -11 -4 -25 1 -19 7 -27 6 -34 -8 -8 -14 -10 -14 -11 -2 0
12 -14 15 -73 13 -101 -2 -99 -2 -92 -16 4 -6 0 -4 -8 5 -9 12 -17 14 -24 7
-8 -8 -13 -7 -18 2 -5 8 -4 10 3 5 7 -4 12 -3 12 2 0 12 -47 25 -60 17 -4 -3
-10 0 -12 6 -3 10 -29 17 -75 21 -7 1 -13 8 -13 16 0 11 -3 12 -14 3 -10 -8
-16 -9 -21 -1 -3 5 -13 10 -21 10 -9 0 -22 7 -31 15 -8 8 -19 12 -24 9 -6 -3
-18 1 -27 9 -9 9 -19 15 -22 14 -3 -1 -16 6 -30 16 -13 9 -19 17 -13 17 7 0
15 -4 18 -10 3 -6 11 -10 17 -10 5 0 0 9 -13 19 -14 11 -28 16 -34 11 -6 -5
-19 -2 -30 7 -17 13 -17 15 -2 9 11 -3 16 -2 12 4 -3 6 -16 10 -28 10 -18 0
-19 2 -7 10 12 8 11 10 -5 10 -26 0 -45 18 -45 41 0 10 -12 27 -27 39 -16 12
-23 19 -17 16 6 -3 11 1 11 9 0 8 -4 12 -8 10 -4 -3 -14 -2 -23 1 -13 5 -14
10 -5 20 8 10 6 12 -11 9 -18 -4 -20 -2 -9 11 10 12 9 13 -4 8 -12 -4 -14 -1
-10 15 6 22 -12 29 -21 9 -3 -7 -3 -3 0 9 3 15 -1 23 -14 27 -13 5 -18 14 -16
32 1 15 -5 32 -16 42 -11 8 -16 20 -13 25 3 6 1 7 -5 3 -6 -3 -13 -2 -17 4 -3
5 -1 10 5 10 6 0 8 5 5 10 -4 6 -12 7 -18 3 -7 -4 -5 2 3 12 14 17 13 18 -3
12 -11 -4 -16 -3 -12 4 4 5 1 16 -5 24 -7 8 -9 15 -4 15 5 0 2 5 -8 10 -10 6
-15 20 -13 36 1 14 -3 28 -9 30 -7 3 -13 26 -15 52 -1 26 -6 49 -12 50 -5 2
-9 13 -9 23 0 12 -4 17 -11 13 -8 -4 -8 -1 -1 12 12 23 11 184 -2 203 -6 10
-6 12 2 7 8 -5 12 1 12 14 0 14 -4 19 -13 14 -9 -6 -9 -5 0 7 10 12 10 18 0
29 -9 10 -9 11 0 6 17 -9 17 6 1 23 -10 11 -10 13 0 7 8 -5 12 0 12 13 0 10 4
21 10 23 5 2 10 20 12 40 2 30 5 35 16 26 10 -9 12 -8 10 3 -2 8 -7 17 -13 21
-6 5 -5 8 3 8 7 0 10 5 7 10 -3 6 4 14 17 19 13 6 18 10 11 10 -15 1 -10 36 5
37 25 3 27 5 12 14 -10 6 -11 10 -2 10 6 0 12 7 12 16 0 9 5 12 13 8 7 -5 6 0
-3 11 -8 10 -10 16 -4 12 7 -4 18 1 25 10 12 14 12 16 -1 9 -13 -7 -13 -6 0 6
8 7 15 19 16 26 2 29 5 33 14 27 6 -3 10 3 10 15 0 12 5 18 10 15 6 -4 7 -11
4 -17 -5 -7 -2 -8 5 -4 7 5 10 14 7 21 -2 7 1 15 7 18 7 3 21 19 31 37 11 19
13 30 6 25 -9 -5 -11 -4 -6 3 4 7 12 12 17 12 6 0 17 7 26 15 8 8 19 13 24 10
5 -4 6 2 2 11 -4 11 -2 15 4 11 6 -4 13 3 16 14 4 13 10 18 18 13 8 -5 10 -3
5 5 -5 8 0 14 13 18 11 3 18 9 15 14 -3 5 0 9 6 9 6 0 8 5 4 13 -5 7 0 6 11
-3 17 -14 17 -13 10 10 -4 14 -4 22 0 18 4 -4 13 -2 21 5 34 30 42 35 50 29 4
-4 4 2 0 12 -6 17 -5 17 11 5 14 -12 16 -12 8 0 -6 11 -4 13 8 8 11 -4 15 -1
12 12 -2 13 3 17 23 17 17 -1 26 4 24 12 -1 7 3 12 10 11 31 -4 48 2 48 17 0
8 4 13 9 10 5 -3 14 1 21 9 10 12 16 13 28 3 13 -10 14 -10 8 0 -5 8 0 12 18
12 14 0 28 5 32 11 4 8 9 7 16 -2 7 -10 8 -7 4 10 -3 18 -2 21 6 13 8 -8 15
-9 25 -1 10 9 13 8 13 -1 0 -9 7 -7 22 6 12 10 18 14 15 7 -10 -17 13 -28 26
-13 9 10 9 11 -2 5 -10 -6 -12 -4 -7 4 6 9 11 9 24 -1 10 -8 13 -9 9 -1 -8 13
23 21 63 15 14 -2 36 -3 50 -2z m705 -300 c3 -5 1 -10 -4 -10 -6 0 -11 5 -11
10 0 6 2 10 4 10 3 0 8 -4 11 -10z m293 -545 c-3 -3 -9 2 -12 12 -6 14 -5 15
5 6 7 -7 10 -15 7 -18z m-1863 -685 c3 -5 1 -10 -4 -10 -6 0 -11 5 -11 10 0 6
2 10 4 10 3 0 8 -4 11 -10z m1925 -250 c0 -5 -5 -10 -11 -10 -5 0 -7 5 -4 10
3 6 8 10 11 10 2 0 4 -4 4 -10z m-1885 -258 c-3 -3 -11 0 -18 7 -9 10 -8 11 6
5 10 -3 15 -9 12 -12z m1175 -236 c0 -2 -7 -6 -15 -10 -8 -3 -15 -1 -15 4 0 6
7 10 15 10 8 0 15 -2 15 -4z m1475 -246 c3 -6 -1 -7 -9 -4 -18 7 -21 14 -7 14
6 0 13 -4 16 -10z m-560 -310 c3 -6 -1 -7 -9 -4 -18 7 -21 14 -7 14 6 0 13 -4
16 -10z m500 -530 c3 -5 1 -10 -4 -10 -6 0 -11 5 -11 10 0 6 2 10 4 10 3 0 8
-4 11 -10z"/>
<path d="M2324 3665 c8 -8 18 -15 22 -15 3 0 1 7 -6 15 -7 8 -17 15 -22 15 -5
0 -3 -7 6 -15z"/>
<path d="M2416 2445 c-3 -8 -1 -15 4 -15 6 0 10 7 10 15 0 8 -2 15 -4 15 -2 0
-6 -7 -10 -15z"/>
<path d="M908 2233 c7 -3 16 -2 19 1 4 3 -2 6 -13 5 -11 0 -14 -3 -6 -6z"/>
<path d="M1076 2108 c3 -5 10 -6 15 -3 13 9 11 12 -6 12 -8 0 -12 -4 -9 -9z"/>
<path d="M1770 2009 c0 -5 5 -7 10 -4 6 3 10 8 10 11 0 2 -4 4 -10 4 -5 0 -10
-5 -10 -11z"/>
<path d="M2517 3909 c7 -7 15 -10 18 -7 3 3 -2 9 -12 12 -14 6 -15 5 -6 -5z"/>
<path d="M561 3774 c0 -11 3 -14 6 -6 3 7 2 16 -1 19 -3 4 -6 -2 -5 -13z"/>
<path d="M566 2167 c3 -10 9 -15 12 -12 3 3 0 11 -7 18 -10 9 -11 8 -5 -6z"/>
<path d="M770 1956 c0 -2 7 -7 16 -10 8 -3 12 -2 9 4 -6 10 -25 14 -25 6z"/>
<path d="M2601 1413 c7 -12 15 -20 18 -17 3 2 -3 12 -13 22 -17 16 -18 16 -5
-5z"/>
</g>
</svg>
